<svg width="36" height="36" viewBox="0 0 36 36" fill="none" xmlns="http://www.w3.org/2000/svg">
<path fill-rule="evenodd" clip-rule="evenodd" d="M23.9007 22.2C23.9653 21.9779 24 21.743 24 21.5C24 21.3288 23.9828 21.1616 23.95 21H25.4C25.7314 21 26 21.2686 26 21.6C26 21.9314 25.7314 22.2 25.4 22.2H23.9007ZM19.0993 22.2H10.6C10.2686 22.2 10 21.9314 10 21.6C10 21.2686 10.2686 21 10.6 21H19.05C19.0172 21.1616 19 21.3288 19 21.5C19 21.743 19.0347 21.9779 19.0993 22.2Z" fill="white"/>
<path fill-rule="evenodd" clip-rule="evenodd" d="M21.5 22.8C22.218 22.8 22.8 22.218 22.8 21.5C22.8 20.782 22.218 20.2 21.5 20.2C20.782 20.2 20.2 20.782 20.2 21.5C20.2 22.218 20.782 22.8 21.5 22.8ZM21.5 24C22.8807 24 24 22.8807 24 21.5C24 20.1193 22.8807 19 21.5 19C20.1193 19 19 20.1193 19 21.5C19 22.8807 20.1193 24 21.5 24Z" fill="white"/>
<path fill-rule="evenodd" clip-rule="evenodd" d="M17.9007 15.2C17.9653 14.9779 18 14.743 18 14.5C18 14.3288 17.9828 14.1616 17.95 14H25.4C25.7314 14 26 14.2686 26 14.6C26 14.9314 25.7314 15.2 25.4 15.2H17.9007ZM13.0993 15.2H10.6C10.2686 15.2 10 14.9314 10 14.6C10 14.2686 10.2686 14 10.6 14H13.05C13.0172 14.1616 13 14.3288 13 14.5C13 14.743 13.0347 14.9779 13.0993 15.2Z" fill="white"/>
<path fill-rule="evenodd" clip-rule="evenodd" d="M15.5 15.8C16.218 15.8 16.8 15.218 16.8 14.5C16.8 13.782 16.218 13.2 15.5 13.2C14.782 13.2 14.2 13.782 14.2 14.5C14.2 15.218 14.782 15.8 15.5 15.8ZM15.5 17C16.8807 17 18 15.8807 18 14.5C18 13.1193 16.8807 12 15.5 12C14.1193 12 13 13.1193 13 14.5C13 15.8807 14.1193 17 15.5 17Z" fill="white"/>
</svg>
